<svg aria-hidden="true" style="position: absolute; width: 0; height: 0; overflow: hidden;" version="1.1" xmlns="http://www.w3.org/2000/svg" xmlns:xlink="http://www.w3.org/1999/xlink">
<defs>
<symbol id="icon-home" viewBox="0 0 26 28">
<title>home</title>
<path d="M22 15.5v7.5c0 0.547-0.453 1-1 1h-6v-6h-4v6h-6c-0.547 0-1-0.453-1-1v-7.5c0-0.031 0.016-0.063 0.016-0.094l8.984-7.406 8.984 7.406c0.016 0.031 0.016 0.063 0.016 0.094zM25.484 14.422l-0.969 1.156c-0.078 0.094-0.203 0.156-0.328 0.172h-0.047c-0.125 0-0.234-0.031-0.328-0.109l-10.813-9.016-10.813 9.016c-0.109 0.078-0.234 0.125-0.375 0.109-0.125-0.016-0.25-0.078-0.328-0.172l-0.969-1.156c-0.172-0.203-0.141-0.531 0.063-0.703l11.234-9.359c0.656-0.547 1.719-0.547 2.375 0l3.813 3.187v-3.047c0-0.281 0.219-0.5 0.5-0.5h3c0.281 0 0.5 0.219 0.5 0.5v6.375l3.422 2.844c0.203 0.172 0.234 0.5 0.063 0.703z"></path>
</symbol>
<symbol id="icon-twitter" viewBox="0 0 26 28">
<title>twitter</title>
<path d="M25.312 6.375c-0.688 1-1.547 1.891-2.531 2.609 0.016 0.219 0.016 0.438 0.016 0.656 0 6.672-5.078 14.359-14.359 14.359-2.859 0-5.516-0.828-7.75-2.266 0.406 0.047 0.797 0.063 1.219 0.063 2.359 0 4.531-0.797 6.266-2.156-2.219-0.047-4.078-1.5-4.719-3.5 0.313 0.047 0.625 0.078 0.953 0.078 0.453 0 0.906-0.063 1.328-0.172-2.312-0.469-4.047-2.5-4.047-4.953v-0.063c0.672 0.375 1.453 0.609 2.281 0.641-1.359-0.906-2.25-2.453-2.25-4.203 0-0.938 0.25-1.797 0.688-2.547 2.484 3.062 6.219 5.063 10.406 5.281-0.078-0.375-0.125-0.766-0.125-1.156 0-2.781 2.25-5.047 5.047-5.047 1.453 0 2.766 0.609 3.687 1.594 1.141-0.219 2.234-0.641 3.203-1.219-0.375 1.172-1.172 2.156-2.219 2.781 1.016-0.109 2-0.391 2.906-0.781z"></path>
</symbol>
<symbol id="icon-facebook" viewBox="0 0 16 28">
<title>facebook</title>
<path d="M14.984 0.187v4.125h-2.453c-1.922 0-2.281 0.922-2.281 2.25v2.953h4.578l-0.609 4.625h-3.969v11.859h-4.781v-11.859h-3.984v-4.625h3.984v-3.406c0-3.953 2.422-6.109 5.953-6.109 1.687 0 3.141 0.125 3.563 0.187z"></path>
</symbol>
<symbol id="icon-comments-o" viewBox="0 0 28 28">
<title>comments-o</title>
<path d="M11 6c-4.875 0-9 2.75-9 6 0 1.719 1.156 3.375 3.156 4.531l1.516 0.875-0.547 1.313c0.328-0.187 0.656-0.391 0.969-0.609l0.688-0.484 0.828 0.156c0.781 0.141 1.578 0.219 2.391 0.219 4.875 0 9-2.75 9-6s-4.125-6-9-6zM11 4c6.078 0 11 3.578 11 8s-4.922 8-11 8c-0.953 0-1.875-0.094-2.75-0.25-1.297 0.922-2.766 1.594-4.344 2-0.422 0.109-0.875 0.187-1.344 0.25h-0.047c-0.234 0-0.453-0.187-0.5-0.453v0c-0.063-0.297 0.141-0.484 0.313-0.688 0.609-0.688 1.297-1.297 1.828-2.594-2.531-1.469-4.156-3.734-4.156-6.266 0-4.422 4.922-8 11-8zM23.844 22.266c0.531 1.297 1.219 1.906 1.828 2.594 0.172 0.203 0.375 0.391 0.313 0.688v0c-0.063 0.281-0.297 0.484-0.547 0.453-0.469-0.063-0.922-0.141-1.344-0.25-1.578-0.406-3.047-1.078-4.344-2-0.875 0.156-1.797 0.25-2.75 0.25-2.828 0-5.422-0.781-7.375-2.063 0.453 0.031 0.922 0.063 1.375 0.063 3.359 0 6.531-0.969 8.953-2.719 2.609-1.906 4.047-4.484 4.047-7.281 0-0.812-0.125-1.609-0.359-2.375 2.641 1.453 4.359 3.766 4.359 6.375 0 2.547-1.625 4.797-4.156 6.266z"></path>
</symbol>
<symbol id="icon-instagram" viewBox="0 0 24 28">
<title>instagram</title>
<path d="M16 14c0-2.203-1.797-4-4-4s-4 1.797-4 4 1.797 4 4 4 4-1.797 4-4zM18.156 14c0 3.406-2.75 6.156-6.156 6.156s-6.156-2.75-6.156-6.156 2.75-6.156 6.156-6.156 6.156 2.75 6.156 6.156zM19.844 7.594c0 0.797-0.641 1.437-1.437 1.437s-1.437-0.641-1.437-1.437 0.641-1.437 1.437-1.437 1.437 0.641 1.437 1.437zM12 4.156c-1.75 0-5.5-0.141-7.078 0.484-0.547 0.219-0.953 0.484-1.375 0.906s-0.688 0.828-0.906 1.375c-0.625 1.578-0.484 5.328-0.484 7.078s-0.141 5.5 0.484 7.078c0.219 0.547 0.484 0.953 0.906 1.375s0.828 0.688 1.375 0.906c1.578 0.625 5.328 0.484 7.078 0.484s5.5 0.141 7.078-0.484c0.547-0.219 0.953-0.484 1.375-0.906s0.688-0.828 0.906-1.375c0.625-1.578 0.484-5.328 0.484-7.078s0.141-5.5-0.484-7.078c-0.219-0.547-0.484-0.953-0.906-1.375s-0.828-0.688-1.375-0.906c-1.578-0.625-5.328-0.484-7.078-0.484zM24 14c0 1.656 0.016 3.297-0.078 4.953-0.094 1.922-0.531 3.625-1.937 5.031s-3.109 1.844-5.031 1.937c-1.656 0.094-3.297 0.078-4.953 0.078s-3.297 0.016-4.953-0.078c-1.922-0.094-3.625-0.531-5.031-1.937s-1.844-3.109-1.937-5.031c-0.094-1.656-0.078-3.297-0.078-4.953s-0.016-3.297 0.078-4.953c0.094-1.922 0.531-3.625 1.937-5.031s3.109-1.844 5.031-1.937c1.656-0.094 3.297-0.078 4.953-0.078s3.297-0.016 4.953 0.078c1.922 0.094 3.625 0.531 5.031 1.937s1.844 3.109 1.937 5.031c0.094 1.656 0.078 3.297 0.078 4.953z"></path>
</symbol>
<symbol id="icon-volume-control-phone" viewBox="0 0 22 28">
<title>volume-control-phone</title>
<path d="M9.641 26.391c0-0.375-0.828-3.031-1-3.656-0.094-0.391-0.125-1.031-0.422-1.313-0.203-0.187-0.531-0.219-0.797-0.219-0.734 0-1.469 0.172-2.203 0.172-0.219 0-0.547-0.016-0.734-0.172-0.25-0.203-0.375-0.906-0.469-1.219-0.375-1.297-0.578-2.625-0.578-3.984s0.203-2.688 0.578-3.984c0.094-0.313 0.219-1.016 0.469-1.219 0.187-0.156 0.516-0.172 0.734-0.172 0.734 0 1.469 0.172 2.203 0.172 0.266 0 0.594-0.031 0.797-0.219 0.297-0.281 0.328-0.922 0.422-1.313 0.172-0.625 1-3.281 1-3.656 0-0.531-1.406-1.313-1.859-1.484-0.234-0.094-0.469-0.125-0.703-0.125-0.516 0-1.031 0.141-1.531 0.281-2.562 0.766-3.172 2.328-4.188 4.531-1.094 2.359-1.359 4.609-1.359 7.187s0.266 4.828 1.359 7.187c1.016 2.203 1.625 3.766 4.188 4.531 0.5 0.141 1.016 0.281 1.531 0.281 0.234 0 0.469-0.031 0.703-0.125 0.453-0.172 1.859-0.953 1.859-1.484zM12.125 12.125c-0.266 0-0.516-0.109-0.703-0.297-0.391-0.391-0.406-1.031 0-1.422 0.375-0.375 0.578-0.875 0.578-1.406s-0.203-1.031-0.578-1.422c-0.406-0.391-0.391-1.016 0-1.406s1.016-0.391 1.406 0c0.75 0.75 1.172 1.766 1.172 2.828s-0.422 2.078-1.172 2.828c-0.203 0.187-0.453 0.297-0.703 0.297zM14.953 14.953c-0.266 0-0.516-0.094-0.703-0.297-0.391-0.391-0.391-1.016 0-1.406 1.125-1.141 1.75-2.641 1.75-4.25s-0.625-3.109-1.75-4.25c-0.391-0.391-0.391-1.016 0-1.406s1.016-0.391 1.406 0c1.516 1.516 2.344 3.516 2.344 5.656s-0.828 4.141-2.344 5.656c-0.187 0.203-0.453 0.297-0.703 0.297zM17.781 17.781c-0.266 0-0.516-0.094-0.703-0.297-0.391-0.391-0.391-1.016 0-1.406 1.875-1.891 2.922-4.406 2.922-7.078s-1.047-5.187-2.922-7.078c-0.391-0.391-0.391-1.016 0-1.406s1.016-0.391 1.406 0c2.266 2.266 3.516 5.281 3.516 8.484s-1.25 6.219-3.516 8.484c-0.187 0.203-0.453 0.297-0.703 0.297z"></path>
</symbol>
<symbol id="icon-ravelry" viewBox="0 0 34 28">
<title>ravelry</title>
<path d="M17.859 27.078c-0.063-0.016-0.109-0.031-0.172-0.063 0 0-5.141-3.016-6.875-7.891-0.578-0.094-1.797-0.375-2.734-0.578v0c1.359 4.422 5.141 7.797 9.781 8.531zM7.844 17.609l2.625 0.438c-0.891-2.672-1-5.719-1-5.719-1.047 1.016-1.609 2.406-1.891 3.5v0c0.047 0.609 0.125 1.203 0.266 1.781zM9.562 8.094v0c-0.484 0.719-0.875 1.5-1.203 2.312 0.516-0.547 0.938-0.906 1.156-1.062-0.031-0.469 0.047-1.25 0.047-1.25zM32.016 14.875c0-6.813-5.5-12.344-12.25-12.344-3.125 0-5.969 1.188-8.141 3.141-0.328 0.641-0.547 1.453-0.703 2.5 3.328-2.828 9.266-2.125 9.266-2.125 1.484 0.063 1.313 1.375 1.297 1.781-5.406-0.453-8.062 1.094-10.687 3.328 0 0 0.516 5 1.703 7.031 6.844 0.313 12.047-3.406 12.047-3.406 0.656-0.469 1.234-0.516 1.359 0.297 0.094 0.656 0.141 1.547-0.609 1.891-2.281 1.062-4.797 1.734-7.297 2.094-1.625 0.234-2.531 0.297-4.953 0.25 2.312 5.375 8.094 6.844 8.094 6.844 1.813 0.297 3.187 0.063 4.109-0.234v0c4-2.031 6.766-6.219 6.766-11.047zM33.172 14.297c-0.109 1.062-0.281 2.297-0.625 3.313-1.406 4.172-3.359 6.891-7.812 9.375-0.406 0.281-0.844 0.547-1.281 0.688-0.797 0.281-1.656 0.344-2.547 0.25-0.375 0.031-0.75 0.047-1.141 0.047-5.953 0-10.984-4.062-12.5-9.609-0.047 0-0.094-0.016-0.141-0.016-0.359 2.812 1.719 6.609 1.719 6.609s0.125 0.187 0.844 1.281c-3.984-2.109-4.094-8.328-4.094-8.328-0.953-0.359-4.266-1.484-4.844-2.406 0 0 2.594 1.422 4.828 1.703-0.016-0.016 0.031-0.5 0.031-0.5 0.141-1.906 0.797-3.391 1.469-4.531 0.438-2.141 1.406-4.078 2.75-5.703 0.234-0.969 0.609-2.125 1.266-3.344 0.281-0.531 0.547-0.875 1.266-1.203 4.75-2.219 9.438-2.781 14.25-0.281v0c4.609 2.406 7.109 7.438 6.563 12.656z"></path>
</symbol>
</defs>
</svg>